<mxfile host="app.diagrams.net" modified="2023-10-31T11:57:36.390Z" agent="Mozilla/5.0 (Windows NT 10.0; Win64; x64) AppleWebKit/537.36 (KHTML, like Gecko) Chrome/118.0.0.0 Safari/537.36" version="22.0.8" etag="cjQ7BIDlVg_q1HOi4tVY" type="github">
  <diagram name="페이지-1" id="Yl2sHPg2BNZTVWHvxjD1">
    <mxGraphModel>
      <root>
        <mxCell id="0" />
        <mxCell id="1" parent="0" />
      </root>
    </mxGraphModel>
  </diagram>
</mxfile>
